# xmcd
#
# Track frame offsets:
#	150
#	20902
#	33687
#	46260
#	60042
#	76357
#	95940
#	114202
#	129842
#	150170
#	162710
#
# Disc length: 2429 seconds
#
# Revision: 3
# Processed by: cddbd v1.4PL0 Copyright (c) Steve Scherf et al.
# Submitted via: MusicWizard 6.0.2
#
DISCID=82097b0b
DTITLE=John Brack and Jeff Turner - A Time For Feelings
DYEAR=1988
DGENRE=Country
TTITLE0=Flames Of Love
TTITLE1=Jingle Bells
TTITLE2=It's A Country Kinda Christmas After All
TTITLE3=On Christmas Day
TTITLE4=Silent Night, Holy Night
TTITLE5=Now You Know It's Christmas
TTITLE6=If They Could Know Christmas
TTITLE7=Winter Wonderland
TTITLE8=White Christmas
TTITLE9=Saw The Light
TTITLE10=All I Want For Christmas
EXTD=
EXTT0=
EXTT1=
EXTT2=
EXTT3=
EXTT4=
EXTT5=
EXTT6=
EXTT7=
EXTT8=
EXTT9=
EXTT10=
PLAYORDER=
